<svg width="304" height="228" viewBox="0 0 304 228" fill="none" xmlns="http://www.w3.org/2000/svg">
<mask id="mask0_5443_25" style="mask-type:luminance" maskUnits="userSpaceOnUse" x="0" y="0" width="304" height="228">
<path d="M0 0H303.447V227.586H0V0Z" fill="white"/>
</mask>
<g mask="url(#mask0_5443_25)">
<path fill-rule="evenodd" clip-rule="evenodd" d="M0 0V227.586H303.447V0H0Z" fill="#2E42A5"/>
<mask id="mask1_5443_25" style="mask-type:luminance" maskUnits="userSpaceOnUse" x="0" y="0" width="304" height="228">
<path fill-rule="evenodd" clip-rule="evenodd" d="M0 0V227.586H303.447V0H0Z" fill="white"/>
</mask>
<g mask="url(#mask1_5443_25)">
<mask id="mask2_5443_25" style="mask-type:luminance" maskUnits="userSpaceOnUse" x="0" y="0" width="304" height="228">
<path d="M0 0H303.447V227.586H0V0Z" fill="white"/>
</mask>
<g mask="url(#mask2_5443_25)">
<path d="M-33.7892 211.326L32.9853 239.566L304.962 30.7031L340.184 -11.2625L268.779 -20.7012L157.846 69.3039L68.556 129.947L-33.7892 211.326Z" fill="white"/>
<path d="M-24.6479 231.112L9.37056 247.5L327.535 -15.1617H279.77L-24.6479 231.112Z" fill="#F50100"/>
<path d="M337.235 211.326L270.461 239.566L-1.51546 30.7031L-36.7375 -11.2625L34.6683 -20.7012L145.601 69.3039L234.89 129.947L337.235 211.326Z" fill="white"/>
<path d="M334.958 225.527L300.939 241.915L165.461 129.456L125.294 116.891L-40.1263 -11.1183H7.63967L172.968 113.852L216.882 128.919L334.958 225.527Z" fill="#F50100"/>
<path fill-rule="evenodd" clip-rule="evenodd" d="M187.547 -18.9655H115.9V75.8619H-18.705V151.724H115.9V246.551H187.547V151.724H322.674V75.8619H187.547V-18.9655Z" fill="#F50100"/>
<mask id="mask3_5443_25" style="mask-type:luminance" maskUnits="userSpaceOnUse" x="-19" y="-19" width="342" height="266">
<path fill-rule="evenodd" clip-rule="evenodd" d="M187.547 -18.9655H115.9V75.8619H-18.705V151.724H115.9V246.551H187.547V151.724H322.674V75.8619H187.547V-18.9655Z" fill="white"/>
</mask>
<g mask="url(#mask3_5443_25)">
<path d="M115.9 -18.9654V-37.9309H96.9344V-18.9654H115.9ZM187.547 -18.9654H206.512V-37.9309H187.547V-18.9654ZM115.9 75.8619V94.8274H134.865V75.8619H115.9ZM-18.705 75.8619V56.8964H-37.6705V75.8619H-18.705ZM-18.705 151.724H-37.6705V170.689H-18.705V151.724ZM115.9 151.724H134.865V132.758H115.9V151.724ZM115.9 246.551H96.9344V265.517H115.9V246.551ZM187.547 246.551V265.517H206.512V246.551H187.547ZM187.547 151.724V132.758H168.581V151.724H187.547ZM322.674 151.724V170.689H341.639V151.724H322.674ZM322.674 75.8619H341.639V56.8964H322.674V75.8619ZM187.547 75.8619H168.581V94.8274H187.547V75.8619ZM115.9 2.67029e-05H187.547V-37.9309H115.9V2.67029e-05ZM134.865 75.8619V-18.9654H96.9344V75.8619H134.865ZM-18.705 94.8274H115.9V56.8964H-18.705V94.8274ZM0.260423 151.724V75.8619H-37.6705V151.724H0.260423ZM115.9 132.758H-18.705V170.689H115.9V132.758ZM134.865 246.551V151.724H96.9344V246.551H134.865ZM187.547 227.586H115.9V265.517H187.547V227.586ZM168.581 151.724V246.551H206.512V151.724H168.581ZM322.674 132.758H187.547V170.689H322.674V132.758ZM303.708 75.8619V151.724H341.639V75.8619H303.708ZM187.547 94.8274H322.674V56.8964H187.547V94.8274ZM168.581 -18.9654V75.8619H206.512V-18.9654H168.581Z" fill="white"/>
</g>
</g>
</g>
</g>
</svg>
